<svg width="576" height="512" viewBox="0 0 576 512" fill="none" xmlns="http://www.w3.org/2000/svg">
<path d="M212.607 23.4844C212.607 10.4701 202.146 0 189.143 0C176.14 0 165.679 10.4701 165.679 23.4844V62.625H126.571C92.0594 62.625 64 90.7084 64 125.25V140.906V187.875V438.375C64 472.917 92.0594 501 126.571 501H439.429C473.941 501 502 472.917 502 438.375V187.875V140.906V125.25C502 90.7084 473.941 62.625 439.429 62.625H400.321V23.4844C400.321 10.4701 389.86 0 376.857 0C363.854 0 353.393 10.4701 353.393 23.4844V62.625H212.607V23.4844ZM110.929 187.875H455.071V438.375C455.071 446.986 448.032 454.031 439.429 454.031H126.571C117.968 454.031 110.929 446.986 110.929 438.375V187.875Z" fill="#2E97D1"/>
<path d="M110.929 187.875H455.071V438.375C455.071 446.986 448.032 454.031 439.429 454.031H126.571C117.968 454.031 110.929 446.986 110.929 438.375V187.875Z" fill="white"/>
<path d="M364.5 214C357.75 214 310.5 227.5 310.5 288.25V335.5C310.5 350.392 322.608 362.5 337.5 362.5H351V416.5C351 423.967 357.033 430 364.5 430C371.967 430 378 423.967 378 416.5V362.5V315.25V227.5C378 220.033 371.967 214 364.5 214ZM216 220.75C216 217.291 213.427 214.422 209.967 214.042C206.508 213.663 203.428 215.941 202.669 219.273L189.886 276.775C189.295 279.433 189 282.133 189 284.833C189 304.197 203.808 320.102 222.75 321.831V416.5C222.75 423.967 228.783 430 236.25 430C243.717 430 249.75 423.967 249.75 416.5V321.831C268.692 320.102 283.5 304.197 283.5 284.833C283.5 282.133 283.205 279.433 282.614 276.775L269.831 219.273C269.072 215.898 265.908 213.663 262.491 214.042C259.073 214.422 256.5 217.291 256.5 220.75V277.366C256.5 279.644 254.644 281.5 252.366 281.5C250.214 281.5 248.442 279.855 248.231 277.703L242.958 220.159C242.663 216.658 239.752 214 236.25 214C232.748 214 229.837 216.658 229.542 220.159L224.311 277.703C224.1 279.855 222.328 281.5 220.177 281.5C217.898 281.5 216.042 279.644 216.042 277.366V220.75H216ZM236.377 284.875H236.25H236.123L236.25 284.58L236.377 284.875Z" fill="#989898"/>
</svg>
